<svg width="451" height="190" viewBox="0 0 451 190" fill="none" xmlns="http://www.w3.org/2000/svg">
<path d="M62.7285 120.137L81.9087 85.6131L124.659 8.6582L160.782 8.65823L99.9806 118.134L80.8005 152.658L62.7285 120.137Z" fill="#AE87FF"/>
<path opacity="0.54" d="M62.7285 120.137L81.9087 85.6131L124.659 8.6582L160.782 8.65823L99.9806 118.134L80.8005 152.658L62.7285 120.137Z" fill="url(#paint0_linear_49_24)"/>
<path d="M0.818359 8.6582L39.1787 8.65824L81.908 85.6132L99.9799 118.134L80.7998 152.658L62.7278 120.137L0.818359 8.6582Z" fill="#B86BD9"/>
<path d="M264.531 98.9553C264.531 68.8293 240.021 44.3193 209.896 44.3193C179.768 44.3193 155.258 68.8293 155.258 98.9553C155.258 129.083 179.768 153.593 209.896 153.593C219.8 153.593 229.088 150.931 237.106 146.304V152.613H264.531V99.4659H264.519C264.521 99.295 264.531 99.1266 264.531 98.9553ZM209.896 126.168C194.892 126.168 182.683 113.96 182.683 98.9553C182.683 83.951 194.892 71.7445 209.896 71.7445C224.899 71.7445 237.106 83.951 237.106 98.9553C237.106 113.96 224.899 126.168 209.896 126.168Z" fill="#AE87FF"/>
<path d="M343.879 44.3193C313.481 44.3193 288.752 69.0487 288.752 99.4465C288.752 99.6443 288.765 99.839 288.767 100.036H288.752V189.183H316.423V147.217C324.514 151.885 333.886 154.572 343.879 154.572C374.274 154.572 399.004 129.842 399.004 99.4465C399.004 69.0487 374.274 44.3193 343.879 44.3193ZM343.879 126.901C328.74 126.901 316.422 114.585 316.422 99.4465C316.422 84.308 328.74 71.99 343.879 71.99C359.018 71.99 371.333 84.308 371.333 99.4465C371.333 114.585 359.018 126.901 343.879 126.901Z" fill="#AE87FF"/>
<path d="M420.393 43.833H447.497V149.4H420.393V43.833Z" fill="#AE87FF"/>
<path d="M433.945 33.8773C443.157 33.8773 450.624 26.4097 450.624 17.1979C450.624 7.9861 443.157 0.518555 433.945 0.518555C424.733 0.518555 417.266 7.98608 417.266 17.1979C417.266 26.4097 424.733 33.8773 433.945 33.8773Z" fill="#B86BD9"/>
<defs>
<linearGradient id="paint0_linear_49_24" x1="135.456" y1="53.0095" x2="62.9773" y2="114.243" gradientUnits="userSpaceOnUse">
<stop stop-opacity="0"/>
<stop offset="0.23462" stop-opacity="0.29264"/>
<stop offset="0.52244" stop-opacity="0.65165"/>
<stop offset="0.72155" stop-opacity="0.9"/>
</linearGradient>
</defs>
</svg>
